<mxfile host="app.diagrams.net" modified="2022-11-17T13:14:23.313Z" agent="5.0 (Macintosh; Intel Mac OS X 10_15_7) AppleWebKit/537.36 (KHTML, like Gecko) Chrome/107.0.0.0 Safari/537.36" etag="91XegAS8AGal2r0StbGG" version="20.5.3" type="github">
  <diagram id="C5RBs43oDa-KdzZeNtuy" name="Page-1">
    <mxGraphModel dx="1678" dy="933" grid="1" gridSize="10" guides="1" tooltips="1" connect="1" arrows="1" fold="1" page="1" pageScale="1" pageWidth="3300" pageHeight="4681" math="0" shadow="0">
      <root>
        <mxCell id="WIyWlLk6GJQsqaUBKTNV-0" />
        <mxCell id="WIyWlLk6GJQsqaUBKTNV-1" parent="WIyWlLk6GJQsqaUBKTNV-0" />
        <mxCell id="fS0RfPB_zb-3uNbmco2U-18" style="edgeStyle=orthogonalEdgeStyle;rounded=0;orthogonalLoop=1;jettySize=auto;html=1;entryX=0.5;entryY=0;entryDx=0;entryDy=0;entryPerimeter=0;" edge="1" parent="WIyWlLk6GJQsqaUBKTNV-1" source="fS0RfPB_zb-3uNbmco2U-16" target="fS0RfPB_zb-3uNbmco2U-17">
          <mxGeometry relative="1" as="geometry" />
        </mxCell>
        <mxCell id="fS0RfPB_zb-3uNbmco2U-16" value="create event" style="strokeWidth=2;html=1;shape=mxgraph.flowchart.start_1;whiteSpace=wrap;fontSize=16;" vertex="1" parent="WIyWlLk6GJQsqaUBKTNV-1">
          <mxGeometry x="1130" y="260" width="100" height="60" as="geometry" />
        </mxCell>
        <mxCell id="fS0RfPB_zb-3uNbmco2U-20" style="edgeStyle=orthogonalEdgeStyle;rounded=0;orthogonalLoop=1;jettySize=auto;html=1;entryX=0;entryY=0.5;entryDx=0;entryDy=0;" edge="1" parent="WIyWlLk6GJQsqaUBKTNV-1" source="fS0RfPB_zb-3uNbmco2U-17">
          <mxGeometry relative="1" as="geometry">
            <mxPoint x="1391.5" y="400" as="targetPoint" />
          </mxGeometry>
        </mxCell>
        <mxCell id="fS0RfPB_zb-3uNbmco2U-17" value="data validate" style="strokeWidth=2;html=1;shape=mxgraph.flowchart.decision;whiteSpace=wrap;fontSize=16;" vertex="1" parent="WIyWlLk6GJQsqaUBKTNV-1">
          <mxGeometry x="1105" y="350" width="150" height="100" as="geometry" />
        </mxCell>
        <mxCell id="fS0RfPB_zb-3uNbmco2U-21" value="N" style="text;html=1;align=center;verticalAlign=middle;resizable=0;points=[];autosize=1;strokeColor=none;fillColor=none;fontSize=16;" vertex="1" parent="WIyWlLk6GJQsqaUBKTNV-1">
          <mxGeometry x="1290" y="380" width="40" height="30" as="geometry" />
        </mxCell>
        <mxCell id="fS0RfPB_zb-3uNbmco2U-22" value="throw exception" style="strokeWidth=2;html=1;shape=mxgraph.flowchart.start_1;whiteSpace=wrap;fontSize=16;" vertex="1" parent="WIyWlLk6GJQsqaUBKTNV-1">
          <mxGeometry x="1350" y="370" width="100" height="60" as="geometry" />
        </mxCell>
        <mxCell id="fS0RfPB_zb-3uNbmco2U-24" value="" style="points=[[0.25,0,0],[0.5,0,0],[0.75,0,0],[1,0.25,0],[1,0.5,0],[1,0.75,0],[0.75,1,0],[0.5,1,0],[0.25,1,0],[0,0.75,0],[0,0.5,0],[0,0.25,0]];shape=mxgraph.bpmn.task;whiteSpace=wrap;rectStyle=rounded;size=10;html=1;taskMarker=abstract;isLoopSub=1;fontSize=16;" vertex="1" parent="WIyWlLk6GJQsqaUBKTNV-1">
          <mxGeometry x="510" y="390" width="420" height="710" as="geometry" />
        </mxCell>
        <mxCell id="fS0RfPB_zb-3uNbmco2U-49" value="" style="edgeStyle=orthogonalEdgeStyle;rounded=0;orthogonalLoop=1;jettySize=auto;html=1;fontSize=16;entryX=0.5;entryY=1;entryDx=0;entryDy=0;" edge="1" parent="WIyWlLk6GJQsqaUBKTNV-1" source="fS0RfPB_zb-3uNbmco2U-25" target="fS0RfPB_zb-3uNbmco2U-50">
          <mxGeometry relative="1" as="geometry">
            <mxPoint x="720" y="725" as="targetPoint" />
          </mxGeometry>
        </mxCell>
        <mxCell id="fS0RfPB_zb-3uNbmco2U-25" value="vo2do" style="rounded=1;whiteSpace=wrap;html=1;absoluteArcSize=1;arcSize=14;strokeWidth=2;fontSize=16;" vertex="1" parent="WIyWlLk6GJQsqaUBKTNV-1">
          <mxGeometry x="670" y="600" width="100" height="50" as="geometry" />
        </mxCell>
        <mxCell id="fS0RfPB_zb-3uNbmco2U-37" style="edgeStyle=orthogonalEdgeStyle;rounded=0;orthogonalLoop=1;jettySize=auto;html=1;fontSize=16;" edge="1" parent="WIyWlLk6GJQsqaUBKTNV-1" source="fS0RfPB_zb-3uNbmco2U-32" target="fS0RfPB_zb-3uNbmco2U-25">
          <mxGeometry relative="1" as="geometry" />
        </mxCell>
        <mxCell id="fS0RfPB_zb-3uNbmco2U-32" value="RuleVO" style="shape=parallelogram;html=1;strokeWidth=2;perimeter=parallelogramPerimeter;whiteSpace=wrap;rounded=1;arcSize=12;size=0.23;fontSize=16;" vertex="1" parent="WIyWlLk6GJQsqaUBKTNV-1">
          <mxGeometry x="670" y="500" width="100" height="60" as="geometry" />
        </mxCell>
        <mxCell id="fS0RfPB_zb-3uNbmco2U-36" style="edgeStyle=orthogonalEdgeStyle;rounded=0;orthogonalLoop=1;jettySize=auto;html=1;exitX=0.5;exitY=1;exitDx=0;exitDy=0;exitPerimeter=0;entryX=0.5;entryY=0;entryDx=0;entryDy=0;fontSize=16;" edge="1" parent="WIyWlLk6GJQsqaUBKTNV-1" source="fS0RfPB_zb-3uNbmco2U-35" target="fS0RfPB_zb-3uNbmco2U-32">
          <mxGeometry relative="1" as="geometry" />
        </mxCell>
        <mxCell id="fS0RfPB_zb-3uNbmco2U-35" value="start trx" style="strokeWidth=2;html=1;shape=mxgraph.flowchart.start_2;whiteSpace=wrap;fontSize=16;" vertex="1" parent="WIyWlLk6GJQsqaUBKTNV-1">
          <mxGeometry x="687.5" y="400" width="65" height="65" as="geometry" />
        </mxCell>
        <mxCell id="fS0RfPB_zb-3uNbmco2U-50" value="init created time,version...." style="verticalLabelPosition=bottom;verticalAlign=top;html=1;shape=hexagon;perimeter=hexagonPerimeter2;arcSize=6;size=0.27;fontSize=16;direction=west;" vertex="1" parent="WIyWlLk6GJQsqaUBKTNV-1">
          <mxGeometry x="670" y="690" width="100" height="60" as="geometry" />
        </mxCell>
      </root>
    </mxGraphModel>
  </diagram>
</mxfile>
